<?xml version="1.0" standalone="no"?>
<!DOCTYPE svg PUBLIC "-//W3C//DTD SVG 20010904//EN"
 "http://www.w3.org/TR/2001/REC-SVG-20010904/DTD/svg10.dtd">
<svg version="1.0" xmlns="http://www.w3.org/2000/svg"
 width="212.000000pt" height="204.000000pt" viewBox="0 0 212.000000 204.000000"
 preserveAspectRatio="xMidYMid meet">

<g transform="translate(0.000000,204.000000) scale(0.100000,-0.100000)"
fill="#000000" stroke="none">
<path d="M27 2013 c-4 -3 -7 -116 -7 -249 l0 -244 168 -2 167 -3 0 -150 0
-150 -165 -5 -165 -5 0 -590 0 -590 1037 -3 1038 -2 0 595 0 595 -165 0 -165
0 0 155 0 155 165 0 165 0 0 250 0 250 -1033 0 c-569 0 -1037 -3 -1040 -7z
m2043 -248 l0 -225 -165 0 -165 0 0 -180 0 -180 165 0 165 0 0 -565 0 -565
-1010 0 -1010 0 2 563 3 562 165 5 165 5 2 177 2 178 -167 2 -167 3 -3 223 -2
222 1010 0 1010 0 0 -225z"/>
<path d="M1410 1472 c-57 -9 -100 -92 -47 -92 12 0 28 9 35 21 19 30 67 23 67
-11 0 -20 -7 -27 -32 -35 -44 -12 -44 -42 -1 -53 63 -16 63 -74 0 -80 -26 -3
-34 2 -44 22 -7 17 -19 26 -35 26 -26 0 -30 -19 -11 -53 19 -36 40 -46 94 -47
40 0 55 5 72 23 33 35 38 74 14 107 -20 26 -20 30 -6 58 16 33 11 74 -11 92
-19 16 -66 26 -95 22z"/>
<path d="M595 1457 c-3 -7 -4 -74 -3 -148 l3 -134 27 -3 c27 -3 27 -2 30 60
l3 63 53 3 c43 3 52 6 52 22 0 16 -9 19 -52 22 l-53 3 -3 37 -3 37 68 3 c60 3
68 5 68 23 0 18 -8 20 -93 23 -70 2 -94 0 -97 -11z"/>
<path d="M830 1321 l0 -151 81 0 c76 0 82 2 110 29 34 35 37 68 8 105 -19 24
-19 27 -5 42 23 23 20 77 -5 100 -16 15 -40 20 -105 23 l-84 3 0 -151z m145
65 c0 -23 -6 -31 -25 -36 -42 -11 -70 5 -70 40 0 31 0 31 48 28 45 -3 47 -4
47 -32z m9 -108 c19 -31 -4 -53 -55 -53 -38 0 -44 3 -47 23 -6 43 4 53 49 50
27 -2 46 -9 53 -20z"/>
<path d="M1090 1320 l0 -151 98 3 c89 3 97 5 97 23 0 18 -8 20 -67 23 l-68 3
0 39 0 40 60 0 c53 0 60 2 60 20 0 18 -7 20 -60 20 l-60 0 0 40 0 39 68 3 c59
3 67 5 67 23 0 18 -8 20 -97 23 l-98 3 0 -151z"/>
<path d="M901 773 c-25 -17 -28 -67 -6 -89 8 -9 27 -14 42 -12 22 2 29 9 31
31 2 18 -1 27 -11 27 -10 0 -13 -7 -10 -21 5 -17 2 -20 -18 -17 -20 2 -24 9
-24 38 0 32 3 36 35 41 19 4 31 7 25 8 -5 2 -18 4 -27 6 -9 2 -26 -4 -37 -12z"/>
<path d="M1103 783 c-21 -8 -15 -47 9 -58 32 -15 35 -35 4 -35 -14 0 -26 -4
-26 -10 0 -15 46 -12 59 4 15 17 6 39 -21 51 -26 12 -25 29 2 33 11 2 18 8 15
13 -7 10 -22 11 -42 2z"/>
<path d="M1191 779 c-15 -6 -21 -14 -17 -25 3 -9 6 -30 7 -47 0 -32 0 -32 10
-7 l10 25 19 -22 c23 -29 34 -30 19 -2 -8 15 -8 24 0 32 28 28 -6 61 -48 46z
m37 -26 c-2 -10 -10 -18 -18 -18 -8 0 -16 8 -18 18 -2 12 3 17 18 17 15 0 20
-5 18 -17z"/>
<path d="M1014 763 c-3 -10 -12 -32 -20 -50 -19 -43 -17 -53 6 -23 l19 25 30
-23 c29 -21 43 -19 22 4 -5 5 -13 24 -18 43 -10 39 -30 52 -39 24z m21 -22 c3
-5 1 -12 -5 -16 -5 -3 -10 1 -10 9 0 18 6 21 15 7z"/>
<path d="M550 525 c0 -30 5 -55 10 -55 6 0 10 9 10 19 0 12 8 21 23 24 l22 4
-22 2 c-30 1 -33 41 -3 41 11 0 20 5 20 10 0 6 -13 10 -30 10 -30 0 -30 -1
-30 -55z"/>
<path d="M1214 566 c-3 -7 -4 -33 -2 -57 3 -39 6 -44 28 -45 36 -3 62 23 49
47 -5 11 -7 24 -4 30 10 16 -15 39 -42 39 -13 0 -26 -6 -29 -14z m56 -21 c0
-8 -9 -15 -20 -15 -11 0 -20 7 -20 15 0 8 9 15 20 15 11 0 20 -7 20 -15z m-2
-48 c2 -12 -3 -17 -17 -17 -15 0 -21 6 -21 21 0 25 33 22 38 -4z"/>
<path d="M1310 525 c0 -30 5 -55 10 -55 6 0 10 25 10 55 0 30 -4 55 -10 55 -5
0 -10 -25 -10 -55z"/>
<path d="M1520 526 c0 -31 5 -56 10 -56 6 0 10 5 10 12 0 9 3 9 12 0 17 -17
33 -15 18 3 -7 9 -10 26 -6 42 6 27 6 27 -9 9 -14 -19 -15 -19 -15 6 0 15 -4
30 -10 33 -6 4 -10 -15 -10 -49z"/>
<path d="M892 553 c-6 -3 -9 -10 -5 -16 4 -7 8 -20 9 -29 1 -10 2 -22 3 -28 0
-5 9 -10 19 -10 14 0 14 2 3 9 -9 6 -12 19 -8 40 7 32 1 41 -21 34z"/>
<path d="M690 531 c0 -56 -34 -69 -49 -18 l-9 32 -1 -37 c-1 -37 0 -38 34 -38
34 0 35 1 35 40 0 22 -2 40 -5 40 -3 0 -5 -9 -5 -19z"/>
<path d="M727 543 c-11 -10 -8 -73 3 -73 6 0 10 14 10 31 0 41 33 36 40 -6 5
-25 7 -27 11 -10 9 33 -7 65 -34 65 -13 0 -27 -3 -30 -7z"/>
<path d="M820 525 c-16 -30 0 -55 34 -54 21 0 21 0 -1 9 -13 5 -23 16 -23 23
0 8 10 22 23 30 22 16 22 16 1 16 -12 1 -26 -9 -34 -24z"/>
<path d="M990 536 c-6 -8 -10 -25 -8 -38 4 -32 63 -39 73 -9 14 45 -36 81 -65
47z m50 -32 c0 -17 -6 -24 -20 -24 -14 0 -20 7 -20 23 0 13 3 26 6 30 12 12
34 -6 34 -29z"/>
<path d="M1081 508 c1 -38 2 -40 8 -13 9 42 41 47 41 6 0 -17 5 -31 11 -31 6
0 9 16 7 38 -3 34 -6 37 -35 40 -33 3 -33 3 -32 -40z"/>
<path d="M1362 538 c-17 -17 -15 -53 3 -68 12 -10 20 -9 39 4 20 13 23 20 17
43 -8 31 -38 42 -59 21z m48 -33 c0 -18 -5 -25 -20 -25 -15 0 -20 7 -20 25 0
18 5 25 20 25 15 0 20 -7 20 -25z"/>
<path d="M1450 530 c-20 -37 17 -87 44 -60 7 7 3 10 -12 10 -17 0 -22 6 -22
25 0 15 6 25 14 25 8 0 18 5 21 10 3 6 -3 10 -14 10 -11 0 -25 -9 -31 -20z"/>
<path d="M953 505 c0 -22 2 -30 4 -17 2 12 2 30 0 40 -3 9 -5 -1 -4 -23z"/>
<path d="M597 363 c-4 -3 -7 -28 -7 -55 l0 -48 38 1 c30 2 32 3 10 6 -34 5
-37 32 -6 41 l22 5 -22 8 c-27 10 -29 29 -3 29 11 0 23 5 26 10 7 11 -47 14
-58 3z"/>
<path d="M1470 361 c0 -6 9 -11 20 -11 24 0 26 -16 3 -28 -14 -9 -14 -10 5
-16 34 -11 27 -36 -10 -37 -32 -2 -32 -2 -5 -6 31 -5 61 13 50 31 -4 6 -7 24
-8 41 0 25 -4 31 -27 33 -16 2 -28 -1 -28 -7z"/>
<path d="M1370 321 c0 -40 9 -61 26 -61 12 0 12 4 2 20 -10 16 -10 24 -1 39
10 16 9 20 -3 25 -23 9 -24 8 -24 -23z"/>
<path d="M681 298 l1 -43 9 32 c9 32 25 50 36 40 3 -4 9 -21 14 -39 8 -33 8
-33 6 7 -2 37 -4 40 -34 43 -33 3 -33 3 -32 -40z"/>
<path d="M775 304 c8 -20 15 -38 15 -40 0 -2 4 -4 9 -4 8 0 41 60 41 75 0 4
-7 2 -15 -5 -8 -7 -15 -19 -15 -26 0 -24 -17 -15 -24 11 -4 14 -11 25 -16 25
-6 0 -4 -16 5 -36z"/>
<path d="M857 333 c-11 -10 -8 -73 3 -73 6 0 10 18 10 40 0 41 -2 45 -13 33z"/>
<path d="M897 333 c-11 -10 -8 -73 3 -73 6 0 10 13 10 30 0 17 7 33 18 39 15
9 15 10 -4 11 -11 0 -24 -3 -27 -7z"/>
<path d="M960 326 c-20 -26 -8 -61 23 -64 21 -3 29 2 36 20 17 45 -29 79 -59
44z m48 -29 c3 -22 -1 -27 -17 -27 -15 0 -21 6 -21 23 0 46 33 49 38 4z"/>
<path d="M1051 297 l1 -42 8 33 c4 18 10 35 13 39 12 11 27 -10 27 -38 0 -16
5 -29 10 -29 6 0 10 16 10 36 0 45 24 42 28 -4 4 -39 22 -43 22 -4 0 42 -11
49 -67 51 l-53 1 1 -43z"/>
<path d="M1194 316 c-10 -40 1 -56 38 -55 30 2 31 2 6 6 -36 6 -37 33 -2 33
36 0 29 34 -8 38 -22 3 -29 -2 -34 -22z m46 4 c0 -5 -7 -10 -16 -10 -8 0 -12
5 -9 10 3 6 10 10 16 10 5 0 9 -4 9 -10z"/>
<path d="M1280 301 c0 -23 5 -41 10 -41 6 0 10 16 10 35 0 19 3 35 8 35 17 -1
31 -17 35 -45 3 -22 4 -19 3 10 -1 37 -3 40 -33 43 -32 3 -33 2 -33 -37z"/>
</g>
</svg>
